<svg
  width="161"
  height="93"
  fill="none"
  xmlns="http://www.w3.org/2000/svg"
><mask id="a" fill="#fff"><path
      d="m96 .232-4.032 17.856c3.072 1.536 6.336 4.896 9.792 10.08 3.264 5.184 5.184 10.848 5.76 16.992l-19.584 3.168v44.064H160.8V65.608c0-17.664-5.088-32.352-15.264-44.064C135.168 9.832 118.656 2.728 96 .232Zm-87.264 0L4.704 18.088c3.072 1.536 6.336 4.896 9.792 10.08 3.264 5.184 5.184 10.848 5.76 16.992L.672 48.328v44.064h72.864V65.608c0-17.664-5.088-32.352-15.264-44.064C47.904 9.832 31.392 2.728 8.736.232Z"
    /></mask><path
    d="m96 .232-.975-.22.196-.872.888.098L96 .232Zm-4.032 17.856-.447.894-.701-.35.173-.764.975.22Zm9.792 10.08.832-.555.007.011.007.011-.846.533Zm5.76 16.992.996-.093.087.93-.923.15-.16-.987Zm-19.584 3.168h-1v-.851l.84-.136.16.987Zm0 44.064v1h-1v-1h1Zm72.864 0h1v1h-1v-1Zm-15.264-70.848.749-.663.006.007-.755.656ZM8.736.232l-.975-.22.196-.872.888.098-.109.994ZM4.704 18.088l-.447.894-.701-.35.173-.764.975.22Zm9.792 10.08.832-.555.007.011.007.011-.846.533Zm5.76 16.992.996-.093.087.93-.923.15-.16-.987ZM.672 48.328h-1v-.851l.84-.136.16.987Zm0 44.064v1h-1v-1h1Zm72.864 0h1v1h-1v-1ZM58.272 21.544l.749-.663.006.007-.755.656ZM96.975.452l-4.032 17.856-1.95-.44L95.025.012l1.95.44Zm-4.56 16.742c3.309 1.654 6.692 5.191 10.177 10.42l-1.664 1.109c-3.427-5.14-6.572-8.323-9.407-9.74l.894-1.79Zm10.191 10.441c3.348 5.318 5.319 11.133 5.91 17.432l-1.992.186c-.561-5.989-2.43-11.502-5.61-16.552l1.692-1.066Zm5.074 18.512-19.584 3.168-.32-1.974 19.584-3.168.32 1.974Zm-18.744 2.181v44.064h-2V48.328h2Zm-1 43.064H160.8v2H87.936v-2Zm71.864 1V65.608h2v26.784h-2Zm0-26.784c0-17.459-5.023-31.903-15.019-43.408l1.51-1.312c10.356 11.92 15.509 26.85 15.509 44.72h-2Zm-15.013-43.401C134.645 10.75 118.411 3.707 95.89 1.226l.22-1.988c22.791 2.511 39.581 9.676 50.175 21.643l-1.498 1.326ZM9.711.452 5.68 18.308l-1.95-.44L7.76.012l1.95.44Zm-4.56 16.742c3.309 1.654 6.692 5.191 10.177 10.42l-1.664 1.109c-3.427-5.14-6.572-8.323-9.407-9.74l.894-1.79Zm10.191 10.441c3.348 5.318 5.32 11.133 5.91 17.432l-1.992.186c-.561-5.989-2.43-11.502-5.61-16.552l1.692-1.066Zm5.074 18.512L.832 49.315l-.32-1.974 19.584-3.168.32 1.974ZM1.672 48.328v44.064h-2V48.328h2Zm-1 43.064h72.864v2H.672v-2Zm71.864 1V65.608h2v26.784h-2Zm0-26.784c0-17.459-5.023-31.903-15.019-43.408l1.51-1.312c10.356 11.92 15.509 26.85 15.509 44.72h-2ZM57.523 22.207C47.381 10.75 31.147 3.707 8.626 1.226l.22-1.988c22.791 2.511 39.58 9.676 50.175 21.643l-1.498 1.326Z"
    fill="#FF9142"
    mask="url(#a)"
  /></svg>
